PathFileType	3	(X/Y/Z)	F:\ViconData\AntennenMessung\Messung1\Session1\ID19.trc
DataRate	CameraRate	NumFrames	NumMarkers	Units	OrigDataRate	OrigDataStartFrame	OrigNumFrames
120.0	120.0	6	70	mm	120.0	589	942	
Frame#	Time	Ashort			Along			Atop			A4			Bshort			Blong			Btop			B4			Cshort			Clong			Ctop			C4			Dshort			Dlong			Dtop			D4			Eshort			Elong			Etop			E4			Fshort			Flong			Ftop			F4			Gshort			Glong			Gtop			G4			Hshort			Hlong			Htop			H4			I1			I2			I3			I4			I5			WandAshort			WandAlong			WandAtop			WandA4			WandA15			WandBshort			WandB4			WandB5			WandBtop			WandBlong			WandCshort			WandClong			WandCtop			WandC4			WandC5			Acenter			Aantenna			Bcenter			Bantenna			Ccenter			Cantenna			Dcenter			Dantenna			Ecenter			Eantenna			Fcenter			Fantenna			Gcenter			Gantenna			Hcenter			Hantenna			Icenter			Iantenna			
		X1	Y1	Z1	X2	Y2	Z2	X3	Y3	Z3	X4	Y4	Z4	X5	Y5	Z5	X6	Y6	Z6	X7	Y7	Z7	X8	Y8	Z8	X9	Y9	Z9	X10	Y10	Z10	X11	Y11	Z11	X12	Y12	Z12	X13	Y13	Z13	X14	Y14	Z14	X15	Y15	Z15	X16	Y16	Z16	X17	Y17	Z17	X18	Y18	Z18	X19	Y19	Z19	X20	Y20	Z20	X21	Y21	Z21	X22	Y22	Z22	X23	Y23	Z23	X24	Y24	Z24	X25	Y25	Z25	X26	Y26	Z26	X27	Y27	Z27	X28	Y28	Z28	X29	Y29	Z29	X30	Y30	Z30	X31	Y31	Z31	X32	Y32	Z32	X33	Y33	Z33	X34	Y34	Z34	X35	Y35	Z35	X36	Y36	Z36	X37	Y37	Z37	X38	Y38	Z38	X39	Y39	Z39	X40	Y40	Z40	X41	Y41	Z41	X42	Y42	Z42	X43	Y43	Z43	X44	Y44	Z44	X45	Y45	Z45	X46	Y46	Z46	X47	Y47	Z47	X48	Y48	Z48	X49	Y49	Z49	X50	Y50	Z50	X51	Y51	Z51	X52	Y52	Z52	X53	Y53	Z53	X54	Y54	Z54	X55	Y55	Z55	X56	Y56	Z56	X57	Y57	Z57	X58	Y58	Z58	X59	Y59	Z59	X60	Y60	Z60	X61	Y61	Z61	X62	Y62	Z62	X63	Y63	Z63	X64	Y64	Z64	X65	Y65	Z65	X66	Y66	Z66	X67	Y67	Z67	X68	Y68	Z68	X69	Y69	Z69	X70	Y70	Z70	
589	4.9	-1038.2557	214.51363	-1644.2081	-1109.3936	204.06853	-1599.2699	-1063.9241	172.60352	-1625.4147	-1054.1586	262.24341	-1634.9661	-1353.0922	234.7971	1003.6174	-1281.3748	227.18536	1052.4833	-1322.7964	193.83168	1020.9822	-1284.7632	287.85992	1052.796	813.98236	187.67867	1209.4788	892.29071	178.43576	1179.3035	844.31195	145.54782	1198.4005	860.64301	292.591	1167.4364	1115.6794	209.52737	-1401.665	1056.16	194.03009	-1460.4187	1095.1244	162.40459	-1424.0034	1069.8068	238.61667	-1425.8362	-1204.6154	1686.0074	-1563.0674	-1129.1707	1688.3308	-1606.077	-1173.2427	1724.3959	-1581.9132	-1134.0925	1580.9453	-1603.8524	-1239.594	1699.1198	1119.4709	-1308.921	1698.1398	1071.6875	-1270.4185	1736.3002	1096.8799	-1245.4841	1592.7606	1110.6996	988.89661	1664.2389	1162.2489	955.78253	1702.3287	1181.0287	922.88965	1661.9518	1215.0612	939.7738	1659.3727	1159.9047	998.95374	1668.4343	-1579.4634	1058.6444	1669.9512	-1518.6932	1024.9094	1708.0177	-1551.1422	1059.192	1672.1342	-1585.499	-186.34373	163.24399	-148.54738	-189.2552	171.78651	-64.552147	-186.75365	127.22725	-106.16164	-155.34647	168.0555	-111.71873	-236.10934	164.9664	-113.58277																																														-1069.0128	209.99757	-1624.7786	-1074.2708	248.63593	-1624.1213	-1321.5945	231.45409	1025.0789	-1320.3567	270.20538	1029.2985	848.02454	183.66057	1196.3608	851.80029	222.42191	1194.2867	1088.809	202.53099	-1428.1897	1082.7776	240.85379	-1432.188	-1171.9604	1687.0131	-1581.6832	-1170.6235	1648.0367	-1581.4437	-1270.6865	1698.6802	1098.0404	-1270.9642	1659.6997	1099.243	953.60846	1704.8293	1182.2616	972.89661	1731.752	1161.667	1026.3425	1669.1304	-1551.5792	1027.7787	1630.1593	-1552.0172	-187.67111	167.13867	-110.25253	-188.56273	205.92526	-114.22813
590	4.9083333	-1038.236	214.5513	-1644.2388	-1109.3829	204.09421	-1599.2858	-1063.9062	172.58365	-1625.4237	-1054.2056	262.26392	-1634.9561	-1352.9965	234.90979	1003.4832	-1281.363	227.20663	1052.4486	-1322.8401	193.77959	1021.0267	-1284.7871	287.79956	1052.8553	813.8988	187.77351	1209.5155	892.21997	178.51295	1179.3385	844.25897	145.61372	1198.2415	860.65686	292.56805	1167.5085	1115.7136	209.81245	-1401.8199	1056.156	194.02051	-1460.4338	1095.142	162.42384	-1423.9847	1069.9576	238.85783	-1425.7828	-1204.624	1686.0098	-1563.0616	-1129.1868	1688.2728	-1606.0237	-1173.2528	1724.397	-1581.9214	-1134.0947	1580.9542	-1603.8495	-1239.5945	1699.1205	1119.4679	-1309.1088	1698.4574	1071.7914	-1270.384	1736.2383	1096.8467	-1245.5215	1592.8726	1110.7416	988.84698	1664.1953	1162.2448	955.91211	1702.3585	1181.0597	922.80664	1661.9597	1215.045	939.78558	1659.406	1159.8733	998.95917	1668.4272	-1579.476	1058.6354	1669.9351	-1518.6895	1024.9052	1708.016	-1551.1527	1059.1902	1672.1334	-1585.4979	-186.39211	163.40033	-148.502	-189.25191	171.78908	-64.550049	-186.9464	127.11364	-106.15157	-155.34312	168.06674	-111.73275	-236.16678	164.96338	-113.60956																																														-1069.0116	210.02792	-1624.7937	-1074.2797	248.66501	-1624.1436	-1321.5042	231.52321	1025.0099	-1320.132	270.28381	1029.1006	848.04163	183.7365	1196.3602	851.88782	222.49922	1194.4474	1088.7621	202.66614	-1428.3442	1082.6899	240.96646	-1432.4934	-1171.9781	1686.9889	-1581.6536	-1170.65	1648.0127	-1581.3746	-1270.8428	1698.8224	1098.036	-1271.3207	1659.845	1099.275	953.77319	1704.8367	1182.2816	973.18463	1731.7142	1161.7438	1026.3346	1669.1189	-1551.5911	1027.7668	1630.1477	-1552.0303	-187.69734	167.22902	-110.18561	-188.42361	206.02658	-114.08713
591	4.9166667	-1038.2102	214.47159	-1644.301	-1109.3999	204.04456	-1599.2958	-1064.0128	172.54988	-1625.3962	-1054.1713	262.2547	-1634.9663	-1353.0273	234.73563	1003.7034	-1281.3615	227.15257	1052.5044	-1322.7997	193.78552	1020.9512	-1284.796	287.89328	1052.8896	813.94586	187.79048	1209.4342	892.21698	178.58092	1179.2344	844.26782	145.50392	1198.4377	860.65649	292.6171	1167.3693	1115.6785	209.53178	-1401.6405	1056.172	194.03287	-1460.4305	1095.1495	162.49313	-1423.9572	1069.8125	238.67369	-1425.85	-1204.6331	1685.9994	-1563.0413	-1129.1851	1688.2787	-1606.0144	-1173.2455	1724.3994	-1581.9062	-1134.1044	1580.9573	-1603.859	-1239.6533	1699.2041	1119.495	-1308.9065	1698.1567	1071.6934	-1270.3989	1736.267	1096.8622	-1245.5248	1592.8221	1110.7279	988.8728	1664.2061	1162.2402	955.84656	1702.3351	1181.1097	922.89777	1662.1022	1215.1758	939.77313	1659.3904	1159.917	998.95636	1668.432	-1579.4724	1058.6346	1669.9476	-1518.6946	1024.9069	1708.0278	-1551.1586	1059.1848	1672.1357	-1585.4978	-186.35933	163.24904	-148.54471	-189.24014	171.78641	-64.534668	-186.83319	127.10748	-106.11459	-155.36069	168.03001	-111.70979	-236.17606	164.99599	-113.60986																																														-1069.0973	209.94759	-1624.7744	-1074.3507	248.58682	-1624.1323	-1321.6313	231.41357	1025.0825	-1320.4283	270.16217	1029.3368	847.95282	183.78914	1196.313	851.68365	222.55063	1194.162	1088.853	202.54489	-1428.1429	1082.8284	240.86803	-1432.1479	-1171.9673	1686.9861	-1581.6467	-1170.6359	1648.0098	-1581.3763	-1270.674	1698.7349	1098.083	-1270.9597	1659.7566	1099.3511	953.60419	1704.9238	1182.3909	972.90094	1731.8341	1161.7881	1026.3342	1669.1272	-1551.59	1027.7643	1630.1558	-1552.0222	-187.6738	167.14452	-110.2121	-188.48822	205.93341	-114.18188
592	4.925	-1038.2329	214.53949	-1644.2303	-1109.3802	204.17073	-1599.3225	-1063.9808	172.60068	-1625.3749	-1054.1421	262.25452	-1634.9659	-1352.901	235.25284	1003.5197	-1281.3448	227.12106	1052.4618	-1322.7632	193.83682	1020.9095	-1284.7675	287.86618	1052.8893	813.85645	187.79681	1209.4855	892.14502	178.51117	1179.2875	844.21417	145.61914	1198.3497	860.65961	292.60022	1167.4489	1115.7122	209.79286	-1401.8118	1056.182	194.00127	-1460.3776	1095.0996	162.33058	-1423.991	1069.844	238.68433	-1425.8339	-1204.6777	1686.0344	-1563.0366	-1129.1682	1688.2848	-1606.0267	-1173.238	1724.3964	-1581.9274	-1134.0927	1580.9708	-1603.8815	-1239.6074	1699.1204	1119.4714	-1309.0277	1698.2437	1071.7102	-1270.3862	1736.2374	1096.8446	-1245.4597	1592.7639	1110.6945	988.89642	1664.2288	1162.2645	955.79761	1702.3436	1181.0953	922.90887	1662.0066	1215.0963	939.73669	1659.3749	1159.8842	998.94983	1668.4186	-1579.4679	1058.6395	1669.9436	-1518.6985	1024.907	1708.0208	-1551.1565	1059.1899	1672.1187	-1585.5031	-186.38724	163.39847	-148.51729	-189.24069	171.78969	-64.54303	-186.65813	127.27383	-106.03431	-155.33682	168.07326	-111.72234	-236.16495	164.94717	-113.61147																																														-1069.0585	210.04709	-1624.7736	-1074.2981	248.68852	-1624.153	-1321.3364	231.66577	1025.1086	-1319.8754	270.40048	1029.4084	847.9585	183.75203	1196.3314	851.76447	222.51163	1194.2799	1088.7168	202.63179	-1428.3698	1082.651	240.93176	-1432.5312	-1171.9703	1687.0092	-1581.6578	-1170.6488	1648.0325	-1581.3771	-1270.7422	1698.7272	1098.0507	-1271.1122	1659.749	1099.3041	953.61499	1704.8568	1182.337	972.90961	1731.7823	1161.7523	1026.3372	1669.1182	-1551.585	1027.7699	1630.1469	-1552.0143	-187.69391	167.24103	-110.06326	-188.6992	206.03148	-113.9736
593	4.9333333	-1038.2111	214.42654	-1644.2754	-1109.3943	204.02979	-1599.2743	-1064.0065	172.57634	-1625.3699	-1054.2163	262.28143	-1634.9808	-1352.8856	235.10904	1003.6246	-1281.3514	227.15289	1052.4668	-1322.6975	193.87961	1020.9034	-1284.6343	287.8718	1052.7717	813.93823	187.6796	1209.4802	892.34576	178.51497	1179.2559	844.21411	145.62112	1198.2544	860.77728	292.45154	1167.6528	1115.7185	209.79605	-1401.8192	1056.1399	194.02321	-1460.4276	1095.1372	162.53355	-1424.0208	1069.8662	238.61304	-1425.7845	-1204.6451	1686.0331	-1563.0133	-1129.1903	1688.29	-1606.0183	-1173.2373	1724.3977	-1581.9233	-1134.0948	1580.9575	-1603.8552	-1239.6694	1699.2451	1119.5211	-1309.0422	1698.2728	1071.7185	-1270.3967	1736.2745	1096.86	-1245.4976	1592.7963	1110.7101	988.88055	1664.2316	1162.2451	955.83972	1702.3173	1181.0522	922.78577	1661.9872	1215.0886	939.76147	1659.399	1159.8851	998.94189	1668.4226	-1579.4698	1058.6643	1669.9445	-1518.6935	1024.9053	1708.0176	-1551.155	1059.1945	1672.1283	-1585.5013	-186.38559	163.39548	-148.51694	-189.27495	171.83926	-64.577888	-187.06731	126.88424	-106.2522	-155.35081	168.04805	-111.71539	-236.10344	164.94666	-113.58657																																														-1069.0765	209.91844	-1624.7627	-1074.323	248.55884	-1624.1342	-1321.3878	231.60582	1025.1306	-1320.0431	270.34024	1029.4708	847.94031	183.70528	1196.373	851.73352	222.4731	1194.4581	1088.761	202.65932	-1428.3376	1082.6747	240.96045	-1432.4584	-1171.959	1687.0107	-1581.6425	-1170.6263	1648.0345	-1581.3496	-1270.7358	1698.8096	1098.1141	-1271.0887	1659.8331	1099.4191	953.60046	1704.8982	1182.3267	972.93311	1731.8198	1161.7725	1026.3387	1669.1207	-1551.5895	1027.7748	1630.1495	-1552.0249	-187.69995	167.23654	-110.3332	-188.30823	206.03389	-114.25693
594	4.9416667	-1038.2449	214.47289	-1644.1705	-1109.4255	204.05611	-1599.2715	-1063.9644	172.57877	-1625.4094	-1054.2227	262.33121	-1635.0227	-1352.9111	235.07098	1003.7172	-1281.3427	227.16499	1052.4098	-1322.7822	193.77443	1020.9691	-1284.783	287.85199	1052.8483	813.96313	187.74182	1209.464	892.24255	178.59033	1179.2145	844.55389	145.43646	1198.3984	860.70093	292.54169	1167.6099	1115.6718	209.53058	-1401.6581	1056.1672	194.01622	-1460.4152	1095.0944	162.3739	-1423.9657	1069.8461	238.67224	-1425.8219	-1204.6569	1686.0363	-1562.9965	-1129.1826	1688.3022	-1606.0688	-1173.2334	1724.3984	-1581.9227	-1134.0923	1580.9586	-1603.8555	-1239.6083	1699.134	1119.4818	-1309.089	1698.3773	1071.7529	-1270.4019	1736.2753	1096.8672	-1245.5215	1592.8353	1110.7269	988.86749	1664.2002	1162.2423	955.81097	1702.3024	1181.0811	922.97211	1661.9988	1215.0781	939.77417	1659.4111	1159.858	998.94	1668.4369	-1579.4802	1058.6353	1669.9386	-1518.6984	1024.9077	1708.0311	-1551.1597	1059.1918	1672.1267	-1585.5026	-186.31648	163.44308	-148.50934	-189.2383	171.79843	-64.548996	-186.69461	127.22592	-106.0713	-155.35773	168.06378	-111.69848	-236.16106	164.97932	-113.61761																																														-1069.0238	209.96858	-1624.7557	-1074.2528	248.61055	-1624.0804	-1321.4363	231.59406	1025.1313	-1320.0575	270.33572	1029.3953	848.19592	183.73972	1196.2354	851.88171	222.50339	1194.0463	1088.7997	202.52434	-1428.1924	1082.7917	240.84702	-1432.2269	-1171.959	1687.0179	-1581.6567	-1170.6305	1648.0415	-1581.3792	-1270.8064	1698.7942	1098.0504	-1271.2274	1659.8159	1099.2811	953.64069	1704.8037	1182.3179	972.92712	1731.7223	1161.7162	1026.3281	1669.1259	-1551.5933	1027.751	1630.1542	-1552.028	-187.65349	167.26648	-110.08931	-188.58252	206.06056	-113.98225
